<svg width="25" height="21" viewBox="0 0 25 21" fill="none" xmlns="http://www.w3.org/2000/svg">
<path d="M10.681 19.3846C10.681 19.7041 10.5839 20.0164 10.402 20.2821C10.2202 20.5477 9.96165 20.7548 9.65921 20.877C9.35677 20.9993 9.02397 21.0313 8.7029 20.969C8.38183 20.9066 8.08691 20.7528 7.85543 20.5269C7.62395 20.3009 7.46631 20.0131 7.40245 19.6998C7.33858 19.3864 7.37136 19.0616 7.49664 18.7664C7.62191 18.4713 7.83406 18.219 8.10625 18.0415C8.37844 17.864 8.69845 17.7692 9.02581 17.7692C9.46478 17.7692 9.88578 17.9394 10.1962 18.2424C10.5066 18.5453 10.681 18.9562 10.681 19.3846ZM19.7844 17.7692C19.457 17.7692 19.137 17.864 18.8648 18.0415C18.5926 18.219 18.3805 18.4713 18.2552 18.7664C18.1299 19.0616 18.0971 19.3864 18.161 19.6998C18.2249 20.0131 18.3825 20.3009 18.614 20.5269C18.8455 20.7528 19.1404 20.9066 19.4615 20.969C19.7825 21.0313 20.1153 20.9993 20.4178 20.877C20.7202 20.7548 20.9787 20.5477 21.1606 20.2821C21.3424 20.0164 21.4395 19.7041 21.4395 19.3846C21.4395 18.9562 21.2651 18.5453 20.9547 18.2424C20.6443 17.9394 20.2233 17.7692 19.7844 17.7692ZM24.7198 5.06221L22.0674 14.3789C21.9216 14.8879 21.6097 15.3365 21.179 15.6568C20.7483 15.9771 20.2224 16.1516 19.6809 16.1538H9.45615C8.91308 16.1536 8.385 15.98 7.95243 15.6596C7.51987 15.3391 7.20657 14.8894 7.0603 14.3789L3.43136 1.61538H1.57758C1.35809 1.61538 1.14759 1.53029 0.992393 1.37882C0.837191 1.22735 0.75 1.02191 0.75 0.807692C0.75 0.593479 0.837191 0.388039 0.992393 0.236568C1.14759 0.0850959 1.35809 1.49185e-08 1.57758 1.49185e-08H4.06032C4.24125 -3.39128e-05 4.41721 0.0578021 4.56126 0.164654C4.70531 0.271506 4.8095 0.421486 4.8579 0.591635L5.83859 4.03846H23.9223C24.0498 4.03844 24.1757 4.0672 24.29 4.12251C24.4043 4.17782 24.504 4.25817 24.5812 4.35729C24.6584 4.45641 24.7111 4.57161 24.7352 4.69389C24.7592 4.81618 24.754 4.94223 24.7198 5.06221ZM22.833 5.65385H6.29893L8.65857 13.9468C8.70697 14.117 8.81117 14.267 8.95521 14.3738C9.09926 14.4807 9.27522 14.5385 9.45615 14.5385H19.6809C19.8618 14.5385 20.0378 14.4807 20.1818 14.3738C20.3259 14.267 20.4301 14.117 20.4785 13.9468L22.833 5.65385Z" fill="black"/>
</svg>
