<svg width="25" height="23" viewBox="0 0 25 23" fill="none" xmlns="http://www.w3.org/2000/svg">
<path d="M24.6139 21.6005C22.8583 18.5757 20.1529 16.4068 16.9955 15.3786C18.5573 14.4521 19.7707 13.0402 20.4494 11.3599C21.128 9.67956 21.2345 7.82367 20.7523 6.07722C20.2702 4.33077 19.2261 2.79033 17.7805 1.69246C16.3349 0.59459 14.5676 0 12.75 0C10.9324 0 9.16515 0.59459 7.7195 1.69246C6.27385 2.79033 5.22979 4.33077 4.74765 6.07722C4.26552 7.82367 4.37196 9.67956 5.05065 11.3599C5.72933 13.0402 6.94272 14.4521 8.50448 15.3786C5.34714 16.4056 2.64168 18.5746 0.886064 21.6005C0.821683 21.7051 0.778979 21.8215 0.760473 21.9429C0.741966 22.0642 0.748032 22.188 0.778312 22.3069C0.808592 22.4259 0.862473 22.5376 0.936775 22.6355C1.01108 22.7333 1.1043 22.8154 1.21093 22.8768C1.31757 22.9382 1.43546 22.9776 1.55766 22.9929C1.67985 23.0081 1.80387 22.9988 1.9224 22.9655C2.04092 22.9322 2.15156 22.8756 2.24777 22.799C2.34399 22.7224 2.42384 22.6274 2.4826 22.5195C4.65435 18.779 8.49295 16.5458 12.75 16.5458C17.007 16.5458 20.8456 18.779 23.0174 22.5195C23.0762 22.6274 23.156 22.7224 23.2522 22.799C23.3484 22.8756 23.4591 22.9322 23.5776 22.9655C23.6961 22.9988 23.8201 23.0081 23.9423 22.9929C24.0645 22.9776 24.1824 22.9382 24.2891 22.8768C24.3957 22.8154 24.4889 22.7333 24.5632 22.6355C24.6375 22.5376 24.6914 22.4259 24.7217 22.3069C24.752 22.188 24.758 22.0642 24.7395 21.9429C24.721 21.8215 24.6783 21.7051 24.6139 21.6005ZM6.29469 8.27446C6.29469 7.00208 6.67329 5.75827 7.38261 4.70033C8.09193 3.64239 9.10011 2.81782 10.2797 2.3309C11.4592 1.84398 12.7572 1.71658 14.0094 1.96481C15.2616 2.21304 16.4118 2.82575 17.3146 3.72546C18.2174 4.62516 18.8322 5.77146 19.0813 7.01939C19.3304 8.26732 19.2025 9.56083 18.7139 10.7364C18.2253 11.9119 17.3979 12.9166 16.3364 13.6235C15.2748 14.3304 14.0267 14.7077 12.75 14.7077C11.0385 14.7059 9.39764 14.0275 8.18743 12.8214C6.97722 11.6154 6.29652 9.9801 6.29469 8.27446Z" fill="black"/>
</svg>
